<?xml version="1.0" standalone="no"?>
<!DOCTYPE svg PUBLIC "-//W3C//DTD SVG 20010904//EN"
 "http://www.w3.org/TR/2001/REC-SVG-20010904/DTD/svg10.dtd">
<svg version="1.0" xmlns="http://www.w3.org/2000/svg"
 width="100.000000pt" height="114.000000pt" viewBox="0 0 100.000000 114.000000"
 preserveAspectRatio="xMidYMid meet">

<g transform="translate(0.000000,114.000000) scale(0.100000,-0.100000)"
fill="#d4fffa" stroke="none">
<path d="M428 1043 c-15 -4 -18 -17 -18 -88 0 -74 -2 -84 -19 -90 -11 -3 -23
-15 -26 -26 -4 -10 -15 -19 -26 -19 -17 0 -19 -7 -19 -64 0 -59 2 -64 24 -70
32 -8 54 1 61 25 4 10 15 19 26 19 14 0 19 7 19 25 0 20 5 25 25 25 24 0 25 3
25 60 0 49 4 62 20 72 16 10 20 24 20 69 0 43 -4 58 -16 63 -17 7 -69 6 -96
-1z"/>
<path d="M690 957 c0 -71 3 -84 20 -95 11 -7 20 -19 20 -27 0 -8 9 -15 20 -15
11 0 20 7 20 15 0 8 9 20 20 27 17 11 20 24 20 75 0 56 -2 63 -20 63 -13 0
-20 7 -20 20 0 17 -7 20 -40 20 l-40 0 0 -83z"/>
<path d="M865 658 c-7 -17 -20 -24 -47 -26 -26 -2 -39 -9 -43 -23 -5 -16 -16
-19 -71 -19 -56 0 -64 -2 -64 -19 0 -21 -19 -31 -61 -31 -22 0 -29 -5 -29 -20
0 -15 -7 -20 -25 -20 -18 0 -25 -5 -25 -19 0 -11 -9 -22 -19 -26 -11 -3 -23
-15 -26 -26 -4 -10 -15 -19 -26 -19 -16 0 -19 -7 -19 -45 l0 -45 45 0 c38 0
45 3 45 20 0 12 7 20 18 20 9 0 22 10 27 23 7 16 20 23 47 25 29 2 37 8 42 28
6 22 11 24 71 24 57 0 65 2 65 19 0 21 19 31 61 31 22 0 29 5 29 20 0 17 7 20
45 20 l45 0 0 39 c0 31 -4 40 -21 44 -11 3 -23 15 -26 26 -7 28 -26 27 -38 -1z"/>
<path d="M105 444 c-21 -22 -10 -113 17 -132 11 -8 18 -25 18 -48 0 -27 4 -34
19 -34 11 0 22 -9 26 -19 3 -11 15 -23 26 -26 10 -4 19 -15 19 -26 0 -16 7
-19 45 -19 38 0 45 -3 45 -20 0 -18 10 -19 253 -22 138 -2 260 -1 270 1 13 2
17 13 17 42 0 38 -1 39 -34 39 -25 0 -39 7 -50 22 -15 22 -23 23 -216 26 -188
4 -200 5 -200 23 0 16 -8 19 -58 19 -32 0 -63 5 -70 12 -7 7 -12 38 -12 70 0
51 -2 58 -20 58 -13 0 -20 7 -20 19 0 11 -9 21 -22 25 -32 8 -35 8 -53 -10z"/>
</g>
</svg>
