<?xml version="1.0" standalone="no"?>
<!DOCTYPE svg PUBLIC "-//W3C//DTD SVG 20010904//EN"
 "http://www.w3.org/TR/2001/REC-SVG-20010904/DTD/svg10.dtd">
<svg version="1.0" xmlns="http://www.w3.org/2000/svg"
 width="226.000000pt" height="255.000000pt" viewBox="0 0 226.000000 255.000000"
 preserveAspectRatio="xMidYMid meet">

<g transform="translate(0.000000,255.000000) scale(0.100000,-0.100000)"
fill="#d4fffa" stroke="none">
<path d="M1065 2053 c-41 -44 -55 -68 -64 -107 -6 -31 -12 -236 -14 -528 -4
-404 -6 -481 -19 -500 -9 -13 -42 -41 -74 -63 -33 -22 -86 -60 -119 -85 -33
-25 -79 -58 -102 -73 -23 -16 -54 -46 -68 -68 -25 -35 -27 -44 -20 -95 22
-176 88 -214 468 -264 101 -13 97 -14 97 13 0 37 -30 56 -146 91 -211 63 -261
98 -252 172 3 24 19 36 138 100 74 40 151 86 172 103 63 53 65 72 72 889 3
329 1 472 -6 472 -6 0 -35 -26 -63 -57z"/>
<path d="M1426 2092 c-8 -13 10 -141 29 -208 11 -38 26 -61 57 -88 55 -48 56
-48 106 -76 36 -20 42 -28 42 -56 0 -55 -16 -80 -116 -181 -116 -117 -164
-201 -172 -301 -3 -35 1 -161 9 -280 8 -119 13 -236 12 -260 -2 -42 -41 -168
-70 -226 -24 -47 -2 -146 29 -134 18 7 126 186 155 258 22 52 23 68 23 324 0
256 10 385 32 413 16 21 94 26 200 13 124 -14 156 -25 170 -59 6 -14 14 -154
19 -311 11 -394 30 -635 53 -657 13 -13 37 24 52 78 29 108 59 813 38 925 -3
21 -12 50 -20 64 -18 38 -132 146 -186 178 -33 20 -48 52 -48 106 0 47 -7 41
114 92 63 27 71 33 98 84 27 50 29 62 25 123 -5 78 -26 116 -73 129 -54 15
-168 29 -319 39 -82 5 -173 12 -201 15 -31 4 -54 2 -58 -4z m464 -154 c36 -16
44 -32 28 -61 -20 -38 -35 -47 -78 -47 -32 0 -55 9 -101 40 -55 38 -71 64 -52
84 12 11 170 -1 203 -16z"/>
<path d="M1717 1202 c-32 -36 -40 -117 -34 -357 4 -169 10 -244 22 -284 17
-56 55 -101 86 -101 23 0 22 -13 19 320 -2 252 -14 370 -45 416 -19 29 -27 30
-48 6z"/>
</g>
</svg>
