<?xml version="1.0" standalone="no"?>
<!DOCTYPE svg PUBLIC "-//W3C//DTD SVG 20010904//EN"
 "http://www.w3.org/TR/2001/REC-SVG-20010904/DTD/svg10.dtd">
<svg version="1.0" xmlns="http://www.w3.org/2000/svg"
 width="225.000000pt" height="255.000000pt" viewBox="0 0 225.000000 255.000000"
 preserveAspectRatio="xMidYMid meet">

<g transform="translate(0.000000,255.000000) scale(0.100000,-0.100000)"
fill="#d4fffa" stroke="none">
<path d="M873 2158 c-11 -13 -34 -43 -50 -68 l-30 -45 31 -31 c17 -17 52 -45
77 -62 57 -38 59 -47 55 -242 -5 -203 6 -290 44 -354 60 -102 133 -252 147
-301 19 -69 27 -328 15 -455 -8 -82 -18 -126 -47 -200 -43 -108 -53 -175 -31
-203 14 -18 16 -17 48 15 18 18 38 44 44 58 6 14 21 47 33 74 56 125 68 184
81 416 5 91 14 180 19 199 12 38 47 81 68 81 7 0 13 5 13 10 0 15 119 12 134
-3 41 -41 66 -131 73 -262 5 -99 3 -118 -19 -185 -14 -41 -33 -111 -43 -156
-17 -76 -17 -84 -1 -131 19 -58 57 -87 80 -62 7 8 21 47 31 87 10 40 35 110
57 155 48 98 68 165 68 232 0 59 -55 294 -81 347 -11 21 -19 42 -19 48 0 14
-25 40 -38 40 -6 0 -12 5 -14 11 -2 7 -42 12 -103 14 -215 6 -232 11 -315 89
-55 51 -126 157 -140 205 -5 20 -10 119 -11 221 0 102 -4 236 -8 298 -8 107
-10 114 -37 137 -16 14 -35 25 -41 25 -7 0 -13 5 -13 10 0 19 -56 10 -77 -12z"/>
<path d="M1263 2063 c-35 -14 21 -262 89 -398 59 -117 116 -154 159 -103 11
11 19 22 19 22 0 1 -8 24 -19 51 -10 28 -28 77 -40 110 -21 58 -49 124 -107
253 -18 41 -33 62 -45 62 -10 0 -23 2 -31 4 -7 3 -19 2 -25 -1z"/>
</g>
</svg>
