<?xml version="1.0" standalone="no"?>
<!DOCTYPE svg PUBLIC "-//W3C//DTD SVG 20010904//EN"
 "http://www.w3.org/TR/2001/REC-SVG-20010904/DTD/svg10.dtd">
<svg version="1.0" xmlns="http://www.w3.org/2000/svg"
 width="226.000000pt" height="255.000000pt" viewBox="0 0 226.000000 255.000000"
 preserveAspectRatio="xMidYMid meet">

<g transform="translate(0.000000,255.000000) scale(0.100000,-0.100000)"
fill="#d4fffa" stroke="none">
<path d="M942 2011 c-10 -6 -4 -16 24 -40 21 -17 44 -31 51 -31 7 0 13 -4 13
-10 0 -5 9 -10 19 -10 11 0 22 -4 25 -8 3 -4 28 -14 57 -22 66 -18 84 -43 76
-110 -7 -60 -28 -102 -73 -147 -19 -18 -34 -38 -34 -43 0 -5 -6 -15 -14 -23
-19 -19 -76 -133 -76 -152 0 -23 41 -115 51 -115 5 0 9 -8 9 -18 0 -11 9 -30
20 -43 27 -32 72 -84 120 -139 22 -25 40 -55 40 -68 0 -13 -56 -135 -124 -271
-143 -284 -179 -368 -172 -397 4 -13 20 -25 44 -33 63 -21 74 -8 181 233 17
37 31 74 31 82 0 8 3 14 8 14 7 0 42 72 42 88 0 5 10 22 23 39 12 17 29 41 37
53 8 12 20 28 26 34 7 7 22 32 34 57 13 24 26 46 29 49 4 3 21 28 39 55 17 28
36 55 41 61 5 6 19 31 31 55 13 24 26 46 30 49 16 11 70 131 76 169 3 22 1 63
-6 92 -13 53 -18 59 -160 207 -44 46 -45 47 -49 124 -4 93 5 108 62 108 22 0
54 4 71 9 172 52 189 64 108 75 -45 6 -226 -5 -329 -20 -56 -8 -146 12 -215
47 -22 11 -149 11 -166 0z m481 -465 c33 -31 40 -59 35 -146 -3 -60 -7 -73
-33 -100 -59 -62 -153 -22 -185 77 -17 56 -1 114 45 160 42 42 98 46 138 9z"/>
</g>
</svg>
