<?xml version="1.0" standalone="no"?>
<!DOCTYPE svg PUBLIC "-//W3C//DTD SVG 20010904//EN"
 "http://www.w3.org/TR/2001/REC-SVG-20010904/DTD/svg10.dtd">
<svg version="1.0" xmlns="http://www.w3.org/2000/svg"
 width="226.000000pt" height="255.000000pt" viewBox="0 0 226.000000 255.000000"
 preserveAspectRatio="xMidYMid meet">

<g transform="translate(0.000000,255.000000) scale(0.100000,-0.100000)"
fill="#d4fffa" stroke="none">
<path d="M1162 2142 c-39 -6 -183 -158 -242 -257 -87 -142 -115 -230 -98 -309
11 -53 56 -154 102 -228 130 -206 129 -195 40 -348 -18 -30 -40 -65 -51 -77
-10 -12 -29 -36 -43 -54 -14 -18 -29 -37 -35 -43 -25 -27 -65 -95 -78 -131
-23 -66 -63 -400 -52 -435 9 -28 30 -25 53 8 27 39 32 55 47 173 14 107 39
178 88 246 12 17 35 53 50 80 15 26 50 80 77 118 27 39 69 108 92 154 36 70
43 93 43 140 -1 73 -16 123 -61 196 -48 80 -94 195 -94 237 0 53 43 186 89
273 112 214 160 258 189 172 6 -21 28 -62 46 -90 19 -29 60 -102 90 -162 72
-141 72 -163 10 -287 -83 -165 -110 -267 -89 -333 40 -127 76 -204 166 -355
103 -172 176 -331 198 -428 23 -102 42 -147 69 -160 27 -14 41 -4 52 39 18 67
-27 319 -68 376 -11 15 -32 52 -47 82 -14 29 -31 59 -36 65 -19 22 -82 133
-130 228 -60 120 -64 161 -19 232 95 150 116 222 94 327 -33 160 -58 227 -128
339 -36 59 -116 150 -131 150 -3 0 -15 9 -26 19 -11 10 -35 21 -52 24 -18 2
-45 9 -62 14 -16 5 -40 7 -53 5z"/>
</g>
</svg>
