<?xml version="1.0" standalone="no"?>
<!DOCTYPE svg PUBLIC "-//W3C//DTD SVG 20010904//EN"
 "http://www.w3.org/TR/2001/REC-SVG-20010904/DTD/svg10.dtd">
<svg version="1.0" xmlns="http://www.w3.org/2000/svg"
 width="226.000000pt" height="255.000000pt" viewBox="0 0 226.000000 255.000000"
 preserveAspectRatio="xMidYMid meet">

<g transform="translate(0.000000,255.000000) scale(0.100000,-0.100000)"
fill="#d4fffa" stroke="none">
<path d="M1725 2088 c-48 -26 -56 -28 -187 -28 -75 0 -148 -4 -162 -10 -30
-11 -40 -43 -40 -120 1 -55 37 -143 93 -225 27 -39 26 -65 -4 -123 -36 -70
-85 -200 -85 -227 0 -31 51 -168 100 -270 74 -155 103 -221 140 -325 21 -58
49 -130 61 -160 19 -47 22 -72 21 -180 l0 -125 25 53 c43 92 49 169 25 308
-12 65 -37 168 -57 228 -22 70 -35 129 -35 164 l0 54 95 98 c55 56 95 106 95
118 0 18 -45 110 -60 122 -3 3 -22 26 -41 51 -31 41 -75 95 -151 182 -46 54
-111 197 -112 247 l-1 45 95 20 c52 12 111 28 130 37 37 17 118 83 110 90 -3
2 -27 -8 -55 -24z m-126 -627 c28 -38 51 -78 51 -89 0 -36 -57 -124 -91 -143
-39 -20 -93 68 -86 140 6 52 24 138 32 152 16 24 46 5 94 -60z"/>
<path d="M605 2066 c-20 -15 -19 -16 20 -50 47 -41 104 -56 210 -56 l75 0 0
-32 c0 -66 -46 -155 -125 -243 -20 -22 -57 -73 -83 -113 -26 -41 -57 -88 -68
-106 -29 -45 -64 -140 -64 -174 0 -42 21 -64 104 -107 42 -22 76 -46 76 -54 0
-7 -35 -117 -77 -245 l-78 -231 1 -135 c0 -101 5 -151 19 -200 l19 -64 52 209
c55 219 99 348 165 475 102 200 169 349 169 378 0 35 -26 108 -46 133 -8 8
-23 42 -34 74 -33 97 -23 229 25 313 8 15 26 59 39 99 23 66 23 72 8 86 -10 8
-46 17 -82 21 -101 9 -232 25 -270 31 -24 5 -41 2 -55 -9z m250 -558 c31 -65
39 -94 39 -143 1 -54 -2 -65 -32 -103 -39 -49 -66 -53 -118 -21 -68 41 -69 70
-9 196 25 52 45 96 45 98 0 14 21 55 28 55 5 0 26 -37 47 -82z"/>
</g>
</svg>
