<?xml version="1.0" standalone="no"?>
<!DOCTYPE svg PUBLIC "-//W3C//DTD SVG 20010904//EN"
 "http://www.w3.org/TR/2001/REC-SVG-20010904/DTD/svg10.dtd">
<svg version="1.0" xmlns="http://www.w3.org/2000/svg"
 width="226.000000pt" height="255.000000pt" viewBox="0 0 226.000000 255.000000"
 preserveAspectRatio="xMidYMid meet">

<g transform="translate(0.000000,255.000000) scale(0.100000,-0.100000)"
fill="#000000" stroke="none">
<path d="M1027 1719 c-35 -21 -6 -78 92 -181 30 -32 58 -58 64 -58 31 0 -48
176 -102 226 -29 27 -29 27 -54 13z"/>
<path d="M980 1342 c-90 -46 -151 -112 -171 -186 -14 -52 -14 -142 1 -198 20
-73 131 -228 164 -228 19 0 34 34 29 68 -7 56 -30 160 -47 222 -25 90 -22 125
17 153 41 30 75 42 160 57 114 21 190 3 231 -53 20 -27 21 -40 18 -193 -1 -90
1 -164 5 -164 10 0 73 99 106 165 53 108 47 172 -23 243 -51 52 -97 77 -200
111 -83 28 -238 29 -290 3z"/>
</g>
</svg>
