<?xml version="1.0" standalone="no"?>
<!DOCTYPE svg PUBLIC "-//W3C//DTD SVG 20010904//EN"
 "http://www.w3.org/TR/2001/REC-SVG-20010904/DTD/svg10.dtd">
<svg version="1.0" xmlns="http://www.w3.org/2000/svg"
 width="226.000000pt" height="255.000000pt" viewBox="0 0 226.000000 255.000000"
 preserveAspectRatio="xMidYMid meet">

<g transform="translate(0.000000,255.000000) scale(0.100000,-0.100000)"
fill="#000000" stroke="none">
<path d="M420 2110 c0 -6 28 -28 63 -51 74 -47 184 -152 226 -216 16 -24 35
-70 42 -101 6 -32 27 -107 45 -169 42 -139 43 -159 1 -214 -52 -69 -127 -198
-127 -218 0 -21 51 -92 123 -172 27 -29 56 -63 64 -75 33 -52 189 -72 244 -33
46 33 167 195 175 234 6 32 -17 125 -36 150 -24 30 -70 133 -70 154 0 14 16
62 35 106 19 45 48 135 66 201 17 65 38 135 47 154 15 32 55 80 66 80 2 0 31
17 63 38 82 53 100 61 172 75 36 8 67 19 69 25 6 19 -66 42 -130 42 -112 0
-301 -79 -343 -144 -20 -31 -41 -103 -59 -206 -25 -141 -36 -185 -56 -218 -19
-31 -23 -32 -83 -32 -53 0 -67 4 -85 23 -14 15 -22 36 -22 58 0 81 -33 220
-66 284 -30 55 -166 156 -286 213 -49 23 -138 30 -138 12z m693 -858 c35 -52
47 -78 47 -106 0 -67 -71 -176 -115 -176 -50 0 -145 114 -145 174 0 40 119
176 154 176 7 0 34 -31 59 -68z"/>
<path d="M390 981 c0 -31 36 -66 112 -111 130 -77 147 -89 188 -141 45 -57 73
-138 90 -264 29 -202 100 -222 116 -33 15 169 -9 238 -121 357 -85 90 -142
132 -236 172 -100 44 -149 50 -149 20z"/>
<path d="M1395 957 c-22 -11 -97 -79 -167 -150 -164 -166 -180 -197 -181 -340
-1 -106 12 -160 40 -171 9 -4 22 -1 30 6 19 16 63 103 63 125 0 31 32 147 57
203 13 30 41 71 61 90 59 55 133 115 180 144 46 29 54 55 26 94 -19 28 -55 27
-109 -1z"/>
</g>
</svg>
