<?xml version="1.0" standalone="no"?>
<!DOCTYPE svg PUBLIC "-//W3C//DTD SVG 20010904//EN"
 "http://www.w3.org/TR/2001/REC-SVG-20010904/DTD/svg10.dtd">
<svg version="1.0" xmlns="http://www.w3.org/2000/svg"
 width="226.000000pt" height="255.000000pt" viewBox="0 0 226.000000 255.000000"
 preserveAspectRatio="xMidYMid meet">

<g transform="translate(0.000000,255.000000) scale(0.100000,-0.100000)"
fill="#000000" stroke="none">
<path d="M1239 2314 c-7 -9 -34 -53 -60 -97 -26 -45 -68 -113 -92 -152 -64
-102 -119 -246 -125 -327 -4 -60 -1 -73 28 -134 19 -37 62 -103 97 -145 35
-43 63 -81 63 -85 0 -4 -22 -30 -49 -58 -150 -155 -181 -253 -181 -584 -1 -97
-5 -223 -9 -279 -8 -97 -11 -107 -55 -181 -56 -96 -61 -122 -25 -135 21 -8 32
-6 52 9 31 23 81 104 108 175 24 63 63 323 79 533 12 150 27 211 70 296 30 59
90 130 110 130 8 -1 60 -38 115 -83 78 -65 103 -91 113 -122 17 -50 42 -282
42 -392 0 -101 10 -153 63 -313 39 -122 67 -179 67 -135 -1 28 -16 193 -34
365 -9 80 -20 232 -25 337 -9 166 -13 198 -32 235 -29 58 -104 154 -140 180
-37 28 -37 54 1 97 17 19 56 77 87 129 76 127 80 168 29 265 -41 76 -96 141
-139 164 -40 20 -43 12 -13 -35 33 -53 76 -156 76 -183 0 -36 -97 -223 -137
-262 -39 -40 -63 -46 -87 -22 -71 72 -146 206 -146 262 0 22 21 74 62 151 110
207 128 257 128 351 0 46 -21 69 -41 45z"/>
<path d="M1218 1023 c-21 -44 -23 -60 -22 -188 1 -166 44 -548 60 -532 3 3 14
45 25 94 25 111 27 387 4 538 -24 157 -29 164 -67 88z"/>
</g>
</svg>
