<?xml version="1.0" standalone="no"?>
<!DOCTYPE svg PUBLIC "-//W3C//DTD SVG 20010904//EN"
 "http://www.w3.org/TR/2001/REC-SVG-20010904/DTD/svg10.dtd">
<svg version="1.0" xmlns="http://www.w3.org/2000/svg"
 width="226.000000pt" height="255.000000pt" viewBox="0 0 226.000000 255.000000"
 preserveAspectRatio="xMidYMid meet">

<g transform="translate(0.000000,255.000000) scale(0.100000,-0.100000)"
fill="#000000" stroke="none">
<path d="M1459 1996 c-13 -13 -203 -47 -307 -55 -130 -9 -141 -13 -291 -99
-139 -81 -131 -79 -316 -42 l-40 8 30 -24 c43 -36 80 -54 142 -70 77 -20 129
-17 213 11 99 34 110 29 110 -44 0 -53 -2 -58 -30 -75 -19 -11 -42 -41 -61
-79 -18 -34 -45 -79 -61 -99 -29 -37 -31 -38 -101 -39 -92 -1 -186 -14 -167
-22 44 -18 125 -40 203 -56 105 -22 156 -53 193 -118 16 -27 31 -50 35 -53 5
-3 7 -89 6 -190 -3 -254 -8 -245 242 -449 108 -89 141 -128 141 -172 0 -38 28
-126 46 -144 23 -22 51 -3 65 44 16 55 6 94 -52 197 -41 72 -73 111 -169 204
-118 114 -119 115 -125 170 -3 30 -2 113 3 185 l10 129 38 31 c46 36 129 118
164 162 34 42 66 53 153 54 75 1 74 2 -23 30 -25 7 -67 23 -93 36 -41 20 -53
33 -73 78 -14 30 -28 70 -31 88 -6 40 8 47 94 47 30 0 76 9 105 21 29 12 75
29 103 39 l49 17 -179 -4 c-99 -2 -222 -8 -273 -14 -52 -6 -96 -8 -99 -5 -3 3
-8 36 -11 74 l-4 69 43 6 c24 3 80 9 124 13 57 4 92 13 122 30 43 25 107 96
96 108 -7 7 -18 8 -24 2z m-245 -506 c-1 -102 -32 -240 -61 -272 -22 -24 -52
-22 -93 6 -59 39 -65 62 -52 172 15 130 31 152 132 180 75 21 75 21 74 -86z"/>
<path d="M1264 995 c-11 -27 66 -172 115 -218 66 -62 177 -125 243 -138 70
-14 94 -8 76 20 -7 11 -23 26 -37 33 -51 26 -134 78 -152 94 -11 9 -27 42 -36
73 -21 71 -36 89 -98 116 -75 33 -104 38 -111 20z"/>
<path d="M855 934 c-58 -50 -150 -130 -201 -175 -29 -26 -73 -59 -99 -74 -56
-33 -48 -49 23 -49 82 0 248 88 279 148 31 59 54 176 36 176 -5 0 -21 -12 -38
-26z"/>
</g>
</svg>
