<?xml version="1.0" standalone="no"?>
<!DOCTYPE svg PUBLIC "-//W3C//DTD SVG 20010904//EN"
 "http://www.w3.org/TR/2001/REC-SVG-20010904/DTD/svg10.dtd">
<svg version="1.0" xmlns="http://www.w3.org/2000/svg"
 width="225.000000pt" height="255.000000pt" viewBox="0 0 225.000000 255.000000"
 preserveAspectRatio="xMidYMid meet">

<g transform="translate(0.000000,255.000000) scale(0.100000,-0.100000)"
fill="#000000" stroke="none">
<path d="M380 2104 c42 -43 200 -137 283 -166 53 -19 117 -32 198 -40 136 -13
146 -22 83 -77 -98 -86 -133 -101 -414 -172 -41 -10 -43 -12 -26 -25 56 -40
171 -38 361 7 44 10 91 19 104 19 22 0 23 -2 19 -63 -4 -62 -6 -66 -152 -288
-82 -123 -160 -237 -173 -252 -12 -16 -23 -35 -23 -44 0 -11 189 -223 280
-313 68 -68 65 -56 70 -254 5 -182 5 -183 34 -220 26 -35 30 -37 45 -22 13 14
16 42 17 164 0 88 6 165 13 192 7 25 53 107 102 182 119 182 163 276 156 328
-7 54 -51 146 -122 254 -31 49 -68 114 -80 145 -25 62 -63 270 -67 371 l-3 65
39 3 c46 4 238 -57 312 -99 28 -15 56 -40 62 -55 18 -39 30 -231 47 -739 8
-253 19 -475 24 -492 16 -54 80 -136 146 -186 62 -48 79 -54 104 -38 10 6 -3
26 -54 82 -38 41 -75 90 -83 109 -13 29 -17 122 -23 545 -8 562 -12 604 -71
723 -58 117 -139 167 -342 214 -105 24 -153 30 -240 29 -60 0 -141 6 -180 14
-74 14 -259 68 -358 104 -32 12 -70 21 -84 21 l-27 0 23 -26z m743 -853 c100
-104 142 -176 134 -232 -3 -21 -21 -64 -41 -96 -54 -86 -147 -194 -164 -191
-9 2 -40 32 -69 68 -30 36 -70 83 -90 105 -19 22 -46 59 -60 82 l-24 42 19 45
c11 24 38 64 60 88 22 24 48 57 58 73 25 40 77 105 85 105 3 0 45 -40 92 -89z"/>
<path d="M1012 1143 c-7 -3 -19 -18 -28 -35 -13 -24 -13 -38 -4 -84 12 -58 31
-84 60 -84 45 0 71 132 36 184 -16 25 -36 31 -64 19z"/>
</g>
</svg>
