<?xml version="1.0" standalone="no"?>
<!DOCTYPE svg PUBLIC "-//W3C//DTD SVG 20010904//EN"
 "http://www.w3.org/TR/2001/REC-SVG-20010904/DTD/svg10.dtd">
<svg version="1.0" xmlns="http://www.w3.org/2000/svg"
 width="226.000000pt" height="255.000000pt" viewBox="0 0 226.000000 255.000000"
 preserveAspectRatio="xMidYMid meet">

<g transform="translate(0.000000,255.000000) scale(0.100000,-0.100000)"
fill="#000000" stroke="none">
<path d="M1463 2180 c-18 -11 -33 -24 -33 -28 0 -5 -27 -40 -60 -77 -33 -37
-72 -92 -86 -122 l-27 -54 13 -212 c7 -117 11 -276 9 -354 l-4 -142 -50 -72
c-57 -81 -81 -97 -230 -150 -173 -62 -285 -132 -340 -214 -24 -36 -26 -47 -21
-100 9 -108 45 -187 97 -212 13 -7 95 -16 180 -21 136 -8 162 -12 214 -36 32
-14 80 -47 106 -71 53 -50 64 -53 77 -28 13 26 5 42 -52 102 -72 76 -159 131
-207 131 -67 0 -139 20 -154 43 -12 19 -55 141 -55 159 0 15 93 56 185 82 76
20 119 40 179 79 91 59 107 74 148 137 58 89 61 116 62 550 l1 395 54 101 c66
124 64 157 -6 114z"/>
<path d="M993 1933 c-27 -24 -49 -69 -57 -118 -19 -109 -59 -211 -109 -280
-62 -86 -101 -168 -92 -195 3 -11 10 -20 15 -20 33 0 204 175 253 261 26 44
30 62 38 195 6 81 8 153 5 160 -7 19 -29 17 -53 -3z"/>
</g>
</svg>
